# xmcd
#
# Track frame offsets: 
#        150
#        17287
#        29929
#        45868
#        61278
#        81390
#        99089
#        114305
#        130496
#        141979
#        155104
#        176697
#        192884
#        208644
#        223217
#        238288
#        250280
#        266800
#        281773
#        295718
#        308793
#        322937
#        338549
#
# Disc length: 4678 seconds
#
# Revision: 0
# Processed by: cddbd v1.5.2PL0 Copyright (c) Steve Scherf et al.
# Submitted via: ExactAudioCopy v1.1
#
DISCID=5a124417
DTITLE=Various Artist - MNM Big Hits 2017 Best Of - CD 2
DYEAR=2017
DGENRE=Top 40
TTITLE0=Luis Fonsi - Despacito (Versión Pop)
TTITLE1=Ed Sheeran - Galway Girl
TTITLE2=Jax Jones Feat. Raye - You Don't Know Me
TTITLE3=Bruno Mars - That's What I Like
TTITLE4=The Weeknd Feat. Daft Punk - I Feel It Coming
TTITLE5=Katy Perry Feat. Skip Marley - Chained To The Rhythm
TTITLE6=Jebroer and DJ Paul Elstak - Kind Van De Duivel
TTITLE7=Boef - Habiba
TTITLE8=Kraantje Pappie - Pompen
TTITLE9=Van Echelpoel - Ziet Em Duun
TTITLE10=DJ Khaled Feat. Justin Bieber, Quavo, Chance The Rapper and Lil
TTITLE10=Wayne - I'm The One
TTITLE11=Jason Derulo Feat. Nicki Minaj and Ty Dolla $Ign - Swalla
TTITLE12=John Legend - Love Me Now
TTITLE13=Bazart - Nacht
TTITLE14=AJR - Weak
TTITLE15=Alan Walker - Alone
TTITLE16=Martin Garrix and Dua Lipa - Scared To Be Lonely
TTITLE17=Anne-Marie - Ciao Adios
TTITLE18=Disciples - On My Mind
TTITLE19=Blanche - City Lights
TTITLE20=Emma Bale - Curaçao
TTITLE21=Laura Tesoro - Higher
TTITLE22=Niels and Wiels - Skwon Meiske
EXTD=
EXTT0=
EXTT1=
EXTT2=
EXTT3=
EXTT4=
EXTT5=
EXTT6=
EXTT7=
EXTT8=
EXTT9=
EXTT10=
EXTT11=
EXTT12=
EXTT13=
EXTT14=
EXTT15=
EXTT16=
EXTT17=
EXTT18=
EXTT19=
EXTT20=
EXTT21=
EXTT22=
PLAYORDER=
